<svg xmlns="http://www.w3.org/2000/svg" viewBox="0 0 48 48" id="twitter"><defs><linearGradient id="a" x1="24.44" x2="24.44" y1="11.85" y2="36.75" gradientUnits="userSpaceOnUse"><stop offset="0" stop-color="#fff"></stop><stop offset="1" stop-color="#fff"></stop></linearGradient></defs><g><rect width="44" height="44" x="2" y="2" fill="#1c1c1c" rx="9.04"></rect><path fill="url(#a)" d="M18.76,36.75c11.56,0,17.89-9.58,17.89-17.89,0-.27,0-.54,0-.81a12.77,12.77,0,0,0,3.13-3.26,12.39,12.39,0,0,1-3.6,1,6.35,6.35,0,0,0,2.76-3.47,12.75,12.75,0,0,1-4,1.52,6.3,6.3,0,0,0-10.88,4.3,6.91,6.91,0,0,0,.16,1.44A17.86,17.86,0,0,1,11.26,13a6.22,6.22,0,0,0-.86,3.15,6.28,6.28,0,0,0,2.8,5.24,6.19,6.19,0,0,1-2.84-.79.25.25,0,0,0,0,.08,6.3,6.3,0,0,0,5.05,6.17,6.52,6.52,0,0,1-1.66.22A5.76,5.76,0,0,1,12.56,27a6.29,6.29,0,0,0,5.87,4.37,12.66,12.66,0,0,1-9.31,2.6,17.78,17.78,0,0,0,9.64,2.83Z"></path></g></svg>